# xmcd
#
# Track frame offsets: 
#        150
#        26268
#        55168
#        73635
#        91551
#        126002
#        152833
#        175027
#        198658
#
# Disc length: 3090 seconds
#
# Revision: 0
# Processed by: cddbd v1.5.2PL0 Copyright (c) Steve Scherf et al.
# Submitted via: ExactAudioCopy v1.3
#
DISCID=6a0c1009
DTITLE=Ernie Williams and The Wildcats - Sister
DYEAR=1998
DGENRE=Blues
TTITLE0=Can't Shake That Woman
TTITLE1=Can't Hear the Music
TTITLE2=Time To Move On
TTITLE3=Time For A Change
TTITLE4=Cold Hearted Demon
TTITLE5=Why Do I Do the Things I Do!
TTITLE6=It's Late
TTITLE7=Mother's Church
TTITLE8=Sister
EXTD=
EXTT0=
EXTT1=
EXTT2=
EXTT3=
EXTT4=
EXTT5=
EXTT6=
EXTT7=
EXTT8=
PLAYORDER=
